<?xml version="1.0" encoding="iso-8859-1"?>
<!-- Generator: Adobe Illustrator 16.0.0, SVG Export Plug-In . SVG Version: 6.00 Build 0)  -->
<!DOCTYPE svg PUBLIC "-//W3C//DTD SVG 1.1//EN" "http://www.w3.org/Graphics/SVG/1.1/DTD/svg11.dtd">
<svg version="1.1" id="Capa_1" xmlns="http://www.w3.org/2000/svg" xmlns:xlink="http://www.w3.org/1999/xlink" x="0px" y="0px"
	 width="448px" height="448px" viewBox="0 0 448 448" style="enable-background:new 0 0 448 448;" xml:space="preserve">
<g>
	<path d="M64,256H0v-64h64V256z M128,128H64v64h64V128z M192,64h-64v64h64V64z M256,0h-64v64h64V0z M128,256H64v64h64V256z M192,320
		h-64v64h64V320z M256,384h-64v64h64V384z M256,192h-64v64h64V192z M320,128h-64v64h64V128z M384,64h-64v64h64V64z M448,0h-64v64h64
		V0z M320,256h-64v64h64V256z M384,320h-64v64h64V320z M448,384h-64v64h64V384z"/>
</g>
<g>
</g>
<g>
</g>
<g>
</g>
<g>
</g>
<g>
</g>
<g>
</g>
<g>
</g>
<g>
</g>
<g>
</g>
<g>
</g>
<g>
</g>
<g>
</g>
<g>
</g>
<g>
</g>
<g>
</g>
</svg>
