<svg xmlns="http://www.w3.org/2000/svg" xmlns:xlink="http://www.w3.org/1999/xlink" xmlns:sketch="http://www.bohemiancoding.com/sketch/ns" viewBox="0 0 91 113.75" version="1.1" x="0px" y="0px"><title>rect16660</title><desc>Created with Sketch.</desc>
<g stroke="none" stroke-width="1" fill="none" fill-rule="evenodd" sketch:type="MSPage"><path d="M23.2183,0.45508 L23.2183,7.95508 L30.7183,7.95508 L38.2183,7.95508 L45.7183,7.95508 L53.2183,7.95508 L60.7183,7.95508 L68.2183,7.95508 L68.2183,0.45508 L60.7183,0.45508 L53.2183,0.45508 L45.7183,0.45508 L38.2183,0.45508 L30.7183,0.45508 L23.2183,0.45508 L23.2183,0.45508 Z M68.2183,7.95508 L68.2183,15.45508 L75.7183,15.45508 L75.7183,7.95508 L68.2183,7.95508 L68.2183,7.95508 Z M75.7183,15.45508 L75.7183,22.95508 L83.2183,22.95508 L83.2183,15.45508 L75.7183,15.45508 L75.7183,15.45508 Z M83.2183,22.95508 L83.2183,30.45508 L83.2183,37.95508 L83.2183,45.45508 L83.2183,52.95508 L83.2183,60.45508 L83.2183,67.95508 L90.7183,67.95508 L90.7183,60.45508 L90.7183,52.95508 L90.7183,45.45508 L90.7183,37.95508 L90.7183,30.45508 L90.7183,22.95508 L83.2183,22.95508 L83.2183,22.95508 Z M83.2183,67.95508 L75.7183,67.95508 L75.7183,75.45508 L83.2183,75.45508 L83.2183,67.95508 L83.2183,67.95508 Z M75.7183,75.45508 L68.2183,75.45508 L68.2183,82.95508 L75.7183,82.95508 L75.7183,75.45508 L75.7183,75.45508 Z M68.2183,82.95508 L60.7183,82.95508 L53.2183,82.95508 L45.7183,82.95508 L38.2183,82.95508 L30.7183,82.95508 L23.2183,82.95508 L23.2183,90.45508 L30.7183,90.45508 L38.2183,90.45508 L45.7183,90.45508 L53.2183,90.45508 L60.7183,90.45508 L68.2183,90.45508 L68.2183,82.95508 L68.2183,82.95508 Z M23.2183,82.95508 L23.2183,75.45508 L15.7183,75.45508 L15.7183,82.95508 L23.2183,82.95508 L23.2183,82.95508 Z M15.7183,75.45508 L15.7183,67.95508 L8.2183,67.95508 L8.2183,75.45508 L15.7183,75.45508 L15.7183,75.45508 Z M8.2183,67.95508 L8.2183,60.45508 L8.2183,52.95508 L8.2183,45.45508 L8.2183,37.95508 L8.2183,30.45508 L8.2183,22.95508 L0.7183,22.95508 L0.7183,30.45508 L0.7183,37.95508 L0.7183,45.45508 L0.7183,52.95508 L0.7183,60.45508 L0.7183,67.95508 L8.2183,67.95508 L8.2183,67.95508 Z M8.2183,22.95508 L15.7183,22.95508 L15.7183,15.45508 L8.2183,15.45508 L8.2183,22.95508 L8.2183,22.95508 Z M15.7183,15.45508 L23.2183,15.45508 L23.2183,7.95508 L15.7183,7.95508 L15.7183,15.45508 L15.7183,15.45508 Z M38.2183,22.95508 L38.2183,30.45508 L30.7183,30.45508 L30.7183,37.95508 L23.2183,37.95508 L23.2183,45.45508 L23.2183,52.95508 L30.7183,52.95508 L30.7183,60.45508 L38.2183,60.45508 L38.2183,67.95508 L45.7183,67.95508 L45.7183,60.45508 L45.7183,52.95508 L53.2183,52.95508 L60.7183,52.95508 L68.2183,52.95508 L68.2183,45.45508 L68.2183,37.95508 L60.7183,37.95508 L53.2183,37.95508 L45.7183,37.95508 L45.7183,30.45508 L45.7183,22.95508 L38.2183,22.95508 L38.2183,22.95508 Z" fill="#000000" sketch:type="MSShapeGroup"/></g><text x="0" y="106" fill="#000000" font-size="5px" font-weight="bold" font-family="'Helvetica Neue', Helvetica, Arial-Unicode, Arial, Sans-serif">Created by Bluetip Labs</text><text x="0" y="111" fill="#000000" font-size="5px" font-weight="bold" font-family="'Helvetica Neue', Helvetica, Arial-Unicode, Arial, Sans-serif">from the Noun Project</text></svg>
