<svg xmlns="http://www.w3.org/2000/svg" xmlns:xlink="http://www.w3.org/1999/xlink" xmlns:sketch="http://www.bohemiancoding.com/sketch/ns" viewBox="0 0 91 113.75" version="1.1" x="0px" y="0px"><title>rect16764</title><desc>Created with Sketch.</desc><g stroke="none" stroke-width="1" fill="none" fill-rule="evenodd" sketch:type="MSPage"><path d="M22.5884,0.45508 L22.5884,7.95508 L30.0884,7.95508 L37.5884,7.95508 L45.0884,7.95508 L52.5884,7.95508 L60.0884,7.95508 L67.5884,7.95508 L67.5884,0.45508 L60.0884,0.45508 L52.5884,0.45508 L45.0884,0.45508 L37.5884,0.45508 L30.0884,0.45508 L22.5884,0.45508 L22.5884,0.45508 Z M67.5884,7.95508 L67.5884,15.45508 L75.0884,15.45508 L75.0884,7.95508 L67.5884,7.95508 L67.5884,7.95508 Z M75.0884,15.45508 L75.0884,22.95508 L82.5884,22.95508 L82.5884,15.45508 L75.0884,15.45508 L75.0884,15.45508 Z M82.5884,22.95508 L82.5884,30.45508 L82.5884,37.95508 L82.5884,45.45508 L82.5884,52.95508 L82.5884,60.45508 L82.5884,67.95508 L90.0884,67.95508 L90.0884,60.45508 L90.0884,52.95508 L90.0884,45.45508 L90.0884,37.95508 L90.0884,30.45508 L90.0884,22.95508 L82.5884,22.95508 L82.5884,22.95508 Z M82.5884,67.95508 L75.0884,67.95508 L75.0884,75.45508 L82.5884,75.45508 L82.5884,67.95508 L82.5884,67.95508 Z M75.0884,75.45508 L67.5884,75.45508 L67.5884,82.95508 L75.0884,82.95508 L75.0884,75.45508 L75.0884,75.45508 Z M67.5884,82.95508 L60.0884,82.95508 L52.5884,82.95508 L45.0884,82.95508 L37.5884,82.95508 L30.0884,82.95508 L22.5884,82.95508 L22.5884,90.45508 L30.0884,90.45508 L37.5884,90.45508 L45.0884,90.45508 L52.5884,90.45508 L60.0884,90.45508 L67.5884,90.45508 L67.5884,82.95508 L67.5884,82.95508 Z M22.5884,82.95508 L22.5884,75.45508 L15.0884,75.45508 L15.0884,82.95508 L22.5884,82.95508 L22.5884,82.95508 Z M15.0884,75.45508 L15.0884,67.95508 L7.5884,67.95508 L7.5884,75.45508 L15.0884,75.45508 L15.0884,75.45508 Z M7.5884,67.95508 L7.5884,60.45508 L7.5884,52.95508 L7.5884,45.45508 L7.5884,37.95508 L7.5884,30.45508 L7.5884,22.95508 L0.0884,22.95508 L0.0884,30.45508 L0.0884,37.95508 L0.0884,45.45508 L0.0884,52.95508 L0.0884,60.45508 L0.0884,67.95508 L7.5884,67.95508 L7.5884,67.95508 Z M7.5884,22.95508 L15.0884,22.95508 L15.0884,15.45508 L7.5884,15.45508 L7.5884,22.95508 L7.5884,22.95508 Z M15.0884,15.45508 L22.5884,15.45508 L22.5884,7.95508 L15.0884,7.95508 L15.0884,15.45508 L15.0884,15.45508 Z M45.0884,22.95508 L45.0884,30.45508 L45.0884,37.95508 L37.5884,37.95508 L30.0884,37.95508 L22.5884,37.95508 L22.5884,45.45508 L22.5884,52.95508 L30.0884,52.95508 L37.5884,52.95508 L45.0884,52.95508 L45.0884,60.45508 L45.0884,67.95508 L52.5884,67.95508 L52.5884,60.45508 L60.0884,60.45508 L60.0884,52.95508 L67.5884,52.95508 L67.5884,45.45508 L67.5884,37.95508 L60.0884,37.95508 L60.0884,30.45508 L52.5884,30.45508 L52.5884,22.95508 L45.0884,22.95508 L45.0884,22.95508 Z" fill="#000000" sketch:type="MSShapeGroup"/></g><text x="0" y="106" fill="#000000" font-size="5px" font-weight="bold" font-family="'Helvetica Neue', Helvetica, Arial-Unicode, Arial, Sans-serif">Created by Bluetip Labs</text><text x="0" y="111" fill="#000000" font-size="5px" font-weight="bold" font-family="'Helvetica Neue', Helvetica, Arial-Unicode, Arial, Sans-serif">from the Noun Project</text></svg>