<svg xmlns="http://www.w3.org/2000/svg" xmlns:xlink="http://www.w3.org/1999/xlink" xmlns:sketch="http://www.bohemiancoding.com/sketch/ns" viewBox="0 0 91 113.75" version="1.1" x="0px" y="0px"><title>rect20868</title><desc>Created with Sketch.</desc><g stroke="none" stroke-width="1" fill="none" fill-rule="evenodd" sketch:type="MSPage"><path d="M22.7383,0.5051 L22.7383,8.0051 L30.2383,8.0051 L37.7383,8.0051 L45.2383,8.0051 L52.7383,8.0051 L60.2383,8.0051 L67.7383,8.0051 L67.7383,0.5051 L60.2383,0.5051 L52.7383,0.5051 L45.2383,0.5051 L37.7383,0.5051 L30.2383,0.5051 L22.7383,0.5051 L22.7383,0.5051 Z M67.7383,8.0051 L67.7383,15.5051 L75.2383,15.5051 L75.2383,8.0051 L67.7383,8.0051 L67.7383,8.0051 Z M75.2383,15.5051 L75.2383,23.0051 L82.7383,23.0051 L82.7383,15.5051 L75.2383,15.5051 L75.2383,15.5051 Z M82.7383,23.0051 L82.7383,30.5051 L82.7383,38.0051 L82.7383,45.5051 L82.7383,53.0051 L82.7383,60.5051 L82.7383,68.0051 L90.2383,68.0051 L90.2383,60.5051 L90.2383,53.0051 L90.2383,45.5051 L90.2383,38.0051 L90.2383,30.5051 L90.2383,23.0051 L82.7383,23.0051 L82.7383,23.0051 Z M82.7383,68.0051 L75.2383,68.0051 L75.2383,75.5051 L82.7383,75.5051 L82.7383,68.0051 L82.7383,68.0051 Z M75.2383,75.5051 L67.7383,75.5051 L67.7383,83.0051 L75.2383,83.0051 L75.2383,75.5051 L75.2383,75.5051 Z M67.7383,83.0051 L60.2383,83.0051 L52.7383,83.0051 L45.2383,83.0051 L37.7383,83.0051 L30.2383,83.0051 L22.7383,83.0051 L22.7383,90.5051 L30.2383,90.5051 L37.7383,90.5051 L45.2383,90.5051 L52.7383,90.5051 L60.2383,90.5051 L67.7383,90.5051 L67.7383,83.0051 L67.7383,83.0051 Z M22.7383,83.0051 L22.7383,75.5051 L15.2383,75.5051 L15.2383,83.0051 L22.7383,83.0051 L22.7383,83.0051 Z M15.2383,75.5051 L15.2383,68.0051 L7.7383,68.0051 L7.7383,75.5051 L15.2383,75.5051 L15.2383,75.5051 Z M7.7383,68.0051 L7.7383,60.5051 L7.7383,53.0051 L7.7383,45.5051 L7.7383,38.0051 L7.7383,30.5051 L7.7383,23.0051 L0.2383,23.0051 L0.2383,30.5051 L0.2383,38.0051 L0.2383,45.5051 L0.2383,53.0051 L0.2383,60.5051 L0.2383,68.0051 L7.7383,68.0051 L7.7383,68.0051 Z M7.7383,23.0051 L15.2383,23.0051 L15.2383,15.5051 L7.7383,15.5051 L7.7383,23.0051 L7.7383,23.0051 Z M15.2383,15.5051 L22.7383,15.5051 L22.7383,8.0051 L15.2383,8.0051 L15.2383,15.5051 L15.2383,15.5051 Z M37.7383,23.0051 L37.7383,30.5051 L37.7383,38.0051 L30.2383,38.0051 L22.7383,38.0051 L22.7383,45.5051 L22.7383,53.0051 L30.2383,53.0051 L37.7383,53.0051 L37.7383,60.5051 L37.7383,68.0051 L45.2383,68.0051 L52.7383,68.0051 L52.7383,60.5051 L52.7383,53.0051 L60.2383,53.0051 L67.7383,53.0051 L67.7383,45.5051 L67.7383,38.0051 L60.2383,38.0051 L52.7383,38.0051 L52.7383,30.5051 L52.7383,23.0051 L45.2383,23.0051 L37.7383,23.0051 L37.7383,23.0051 Z" fill="#000000" sketch:type="MSShapeGroup"/></g><text x="0" y="106" fill="#000000" font-size="5px" font-weight="bold" font-family="'Helvetica Neue', Helvetica, Arial-Unicode, Arial, Sans-serif">Created by Bluetip Labs</text><text x="0" y="111" fill="#000000" font-size="5px" font-weight="bold" font-family="'Helvetica Neue', Helvetica, Arial-Unicode, Arial, Sans-serif">from the Noun Project</text></svg>